<mxfile host="app.diagrams.net" agent="Mozilla/5.0 (Windows NT 10.0; Win64; x64) AppleWebKit/537.36 (KHTML, like Gecko) Chrome/135.0.0.0 Safari/537.36 Edg/135.0.0.0" version="26.2.9">
  <diagram name="Page-1" id="e7e014a7-5840-1c2e-5031-d8a46d1fe8dd">
    <mxGraphModel dx="1163" dy="1367" grid="0" gridSize="10" guides="1" tooltips="1" connect="1" arrows="1" fold="1" page="1" pageScale="1" pageWidth="1169" pageHeight="826" background="none" math="0" shadow="0">
      <root>
        <mxCell id="0" />
        <mxCell id="1" parent="0" />
        <mxCell id="GnsFQ2bvyRAYjjchj4tW-123" value="" style="group" vertex="1" connectable="0" parent="1">
          <mxGeometry x="25" y="-797" width="1120" height="749" as="geometry" />
        </mxCell>
        <mxCell id="GnsFQ2bvyRAYjjchj4tW-42" value="&lt;b&gt;LOCALHOST&lt;/b&gt;&lt;div&gt;&lt;b&gt;XAMP/WAMP&lt;/b&gt;&lt;/div&gt;" style="text;html=1;align=center;verticalAlign=middle;resizable=0;points=[];autosize=1;strokeColor=none;fillColor=none;" vertex="1" parent="GnsFQ2bvyRAYjjchj4tW-123">
          <mxGeometry x="73" y="579" width="93" height="41" as="geometry" />
        </mxCell>
        <mxCell id="GnsFQ2bvyRAYjjchj4tW-55" style="edgeStyle=orthogonalEdgeStyle;rounded=0;orthogonalLoop=1;jettySize=auto;html=1;exitX=1;exitY=0.5;exitDx=0;exitDy=0;entryX=0;entryY=0.5;entryDx=0;entryDy=0;" edge="1" parent="GnsFQ2bvyRAYjjchj4tW-123" source="GnsFQ2bvyRAYjjchj4tW-46" target="GnsFQ2bvyRAYjjchj4tW-45">
          <mxGeometry relative="1" as="geometry" />
        </mxCell>
        <mxCell id="GnsFQ2bvyRAYjjchj4tW-46" value="" style="image;aspect=fixed;perimeter=ellipsePerimeter;html=1;align=center;shadow=0;dashed=0;spacingTop=3;image=img/lib/active_directory/database_server.svg;" vertex="1" parent="GnsFQ2bvyRAYjjchj4tW-123">
          <mxGeometry x="68" y="460.83000000000004" width="101" height="123.17" as="geometry" />
        </mxCell>
        <mxCell id="GnsFQ2bvyRAYjjchj4tW-48" value="" style="group" vertex="1" connectable="0" parent="GnsFQ2bvyRAYjjchj4tW-123">
          <mxGeometry x="668" y="184" width="123.40000000000009" height="175" as="geometry" />
        </mxCell>
        <mxCell id="GnsFQ2bvyRAYjjchj4tW-44" value="&lt;b&gt;FIREBASE REALTIME&lt;/b&gt;&lt;div&gt;&lt;b&gt;DATABASE SERVER&lt;/b&gt;&lt;/div&gt;&lt;div&gt;&lt;b&gt;(ONLINE)&lt;/b&gt;&lt;/div&gt;" style="text;html=1;align=center;verticalAlign=middle;resizable=0;points=[];autosize=1;strokeColor=none;fillColor=none;" vertex="1" parent="GnsFQ2bvyRAYjjchj4tW-48">
          <mxGeometry x="-35.99999999999991" y="118" width="142" height="55" as="geometry" />
        </mxCell>
        <mxCell id="GnsFQ2bvyRAYjjchj4tW-50" value="" style="group" vertex="1" connectable="0" parent="GnsFQ2bvyRAYjjchj4tW-123">
          <mxGeometry x="375.70000000000005" y="458.83000000000004" width="131.4000000000001" height="169.99999999999997" as="geometry" />
        </mxCell>
        <mxCell id="GnsFQ2bvyRAYjjchj4tW-45" value="" style="image;aspect=fixed;perimeter=ellipsePerimeter;html=1;align=center;shadow=0;dashed=0;spacingTop=3;image=img/lib/active_directory/windows_server.svg;" vertex="1" parent="GnsFQ2bvyRAYjjchj4tW-50">
          <mxGeometry width="104" height="126.83" as="geometry" />
        </mxCell>
        <mxCell id="GnsFQ2bvyRAYjjchj4tW-49" value="&lt;b&gt;LOCAL WINDOW&amp;nbsp;&lt;/b&gt;&lt;div&gt;&lt;b&gt;SERVER&amp;nbsp;&lt;span style=&quot;background-color: transparent; color: light-dark(rgb(0, 0, 0), rgb(255, 255, 255));&quot;&gt;BACKEND&lt;/span&gt;&lt;/b&gt;&lt;/div&gt;&lt;div&gt;&lt;span style=&quot;background-color: transparent; color: light-dark(rgb(0, 0, 0), rgb(255, 255, 255));&quot;&gt;&lt;b&gt;(ONLINE)&lt;/b&gt;&lt;/span&gt;&lt;/div&gt;" style="text;html=1;align=center;verticalAlign=middle;resizable=0;points=[];autosize=1;strokeColor=none;fillColor=none;" vertex="1" parent="GnsFQ2bvyRAYjjchj4tW-50">
          <mxGeometry x="1.400000000000091" y="112.99999999999997" width="130" height="55" as="geometry" />
        </mxCell>
        <mxCell id="GnsFQ2bvyRAYjjchj4tW-59" style="rounded=0;orthogonalLoop=1;jettySize=auto;html=1;exitX=0;exitY=0;exitDx=0;exitDy=0;entryX=1;entryY=0.75;entryDx=0;entryDy=0;" edge="1" parent="GnsFQ2bvyRAYjjchj4tW-123" source="GnsFQ2bvyRAYjjchj4tW-51" target="GnsFQ2bvyRAYjjchj4tW-47">
          <mxGeometry relative="1" as="geometry" />
        </mxCell>
        <mxCell id="GnsFQ2bvyRAYjjchj4tW-51" value="" style="image;aspect=fixed;perimeter=ellipsePerimeter;html=1;align=center;shadow=0;dashed=0;spacingTop=3;image=img/lib/active_directory/generic_server.svg;" vertex="1" parent="GnsFQ2bvyRAYjjchj4tW-123">
          <mxGeometry x="958" y="460.83000000000004" width="67.2" height="120" as="geometry" />
        </mxCell>
        <mxCell id="GnsFQ2bvyRAYjjchj4tW-52" value="&lt;b&gt;FRONTEND&amp;nbsp;&lt;/b&gt;&lt;div&gt;&lt;b&gt;WEBSITE SYSTEM&lt;br&gt;(ONLINE)&lt;/b&gt;&lt;/div&gt;" style="text;html=1;align=center;verticalAlign=middle;resizable=0;points=[];autosize=1;strokeColor=none;fillColor=none;" vertex="1" parent="GnsFQ2bvyRAYjjchj4tW-123">
          <mxGeometry x="926" y="567" width="125" height="55" as="geometry" />
        </mxCell>
        <mxCell id="GnsFQ2bvyRAYjjchj4tW-54" style="rounded=0;orthogonalLoop=1;jettySize=auto;html=1;exitX=0;exitY=0.75;exitDx=0;exitDy=0;entryX=1;entryY=0.75;entryDx=0;entryDy=0;" edge="1" parent="GnsFQ2bvyRAYjjchj4tW-123" source="GnsFQ2bvyRAYjjchj4tW-45" target="GnsFQ2bvyRAYjjchj4tW-46">
          <mxGeometry relative="1" as="geometry" />
        </mxCell>
        <mxCell id="GnsFQ2bvyRAYjjchj4tW-56" style="rounded=0;orthogonalLoop=1;jettySize=auto;html=1;exitX=1;exitY=0;exitDx=0;exitDy=0;entryX=0;entryY=0.5;entryDx=0;entryDy=0;" edge="1" parent="GnsFQ2bvyRAYjjchj4tW-123" source="GnsFQ2bvyRAYjjchj4tW-45" target="GnsFQ2bvyRAYjjchj4tW-47">
          <mxGeometry relative="1" as="geometry" />
        </mxCell>
        <mxCell id="GnsFQ2bvyRAYjjchj4tW-57" style="rounded=0;orthogonalLoop=1;jettySize=auto;html=1;exitX=0;exitY=0.75;exitDx=0;exitDy=0;entryX=1;entryY=0.25;entryDx=0;entryDy=0;" edge="1" parent="GnsFQ2bvyRAYjjchj4tW-123" source="GnsFQ2bvyRAYjjchj4tW-47" target="GnsFQ2bvyRAYjjchj4tW-45">
          <mxGeometry relative="1" as="geometry" />
        </mxCell>
        <mxCell id="GnsFQ2bvyRAYjjchj4tW-58" style="rounded=0;orthogonalLoop=1;jettySize=auto;html=1;exitX=1;exitY=0.5;exitDx=0;exitDy=0;entryX=0.25;entryY=0;entryDx=0;entryDy=0;" edge="1" parent="GnsFQ2bvyRAYjjchj4tW-123" source="GnsFQ2bvyRAYjjchj4tW-47" target="GnsFQ2bvyRAYjjchj4tW-51">
          <mxGeometry relative="1" as="geometry" />
        </mxCell>
        <mxCell id="GnsFQ2bvyRAYjjchj4tW-60" value="PUERICULTURE SYSTEM" style="swimlane;fontStyle=0;childLayout=stackLayout;horizontal=1;startSize=26;fillColor=none;horizontalStack=0;resizeParent=1;resizeParentMax=0;resizeLast=0;collapsible=1;marginBottom=0;html=1;" vertex="1" parent="GnsFQ2bvyRAYjjchj4tW-123">
          <mxGeometry x="898" y="624" width="200" height="104" as="geometry" />
        </mxCell>
        <mxCell id="GnsFQ2bvyRAYjjchj4tW-61" value="PAYROLL SYSTEM" style="text;strokeColor=none;fillColor=none;align=left;verticalAlign=top;spacingLeft=4;spacingRight=4;overflow=hidden;rotatable=0;points=[[0,0.5],[1,0.5]];portConstraint=eastwest;whiteSpace=wrap;html=1;" vertex="1" parent="GnsFQ2bvyRAYjjchj4tW-60">
          <mxGeometry y="26" width="200" height="26" as="geometry" />
        </mxCell>
        <mxCell id="GnsFQ2bvyRAYjjchj4tW-62" value="ATTENDANCE SYSTEM" style="text;strokeColor=none;fillColor=none;align=left;verticalAlign=top;spacingLeft=4;spacingRight=4;overflow=hidden;rotatable=0;points=[[0,0.5],[1,0.5]];portConstraint=eastwest;whiteSpace=wrap;html=1;" vertex="1" parent="GnsFQ2bvyRAYjjchj4tW-60">
          <mxGeometry y="52" width="200" height="26" as="geometry" />
        </mxCell>
        <mxCell id="GnsFQ2bvyRAYjjchj4tW-63" value="HRIS SYSTEM" style="text;strokeColor=none;fillColor=none;align=left;verticalAlign=top;spacingLeft=4;spacingRight=4;overflow=hidden;rotatable=0;points=[[0,0.5],[1,0.5]];portConstraint=eastwest;whiteSpace=wrap;html=1;" vertex="1" parent="GnsFQ2bvyRAYjjchj4tW-60">
          <mxGeometry y="78" width="200" height="26" as="geometry" />
        </mxCell>
        <mxCell id="GnsFQ2bvyRAYjjchj4tW-64" value="GENERAL REQ/RES" style="swimlane;fontStyle=0;childLayout=stackLayout;horizontal=1;startSize=26;fillColor=none;horizontalStack=0;resizeParent=1;resizeParentMax=0;resizeLast=0;collapsible=1;marginBottom=0;html=1;" vertex="1" parent="GnsFQ2bvyRAYjjchj4tW-123">
          <mxGeometry x="646" y="363" width="140" height="104" as="geometry" />
        </mxCell>
        <mxCell id="GnsFQ2bvyRAYjjchj4tW-65" value="ID" style="text;strokeColor=none;fillColor=none;align=left;verticalAlign=top;spacingLeft=4;spacingRight=4;overflow=hidden;rotatable=0;points=[[0,0.5],[1,0.5]];portConstraint=eastwest;whiteSpace=wrap;html=1;" vertex="1" parent="GnsFQ2bvyRAYjjchj4tW-64">
          <mxGeometry y="26" width="140" height="26" as="geometry" />
        </mxCell>
        <mxCell id="GnsFQ2bvyRAYjjchj4tW-66" value="KEY" style="text;strokeColor=none;fillColor=none;align=left;verticalAlign=top;spacingLeft=4;spacingRight=4;overflow=hidden;rotatable=0;points=[[0,0.5],[1,0.5]];portConstraint=eastwest;whiteSpace=wrap;html=1;" vertex="1" parent="GnsFQ2bvyRAYjjchj4tW-64">
          <mxGeometry y="52" width="140" height="26" as="geometry" />
        </mxCell>
        <mxCell id="GnsFQ2bvyRAYjjchj4tW-69" value="VALUE" style="text;strokeColor=none;fillColor=none;align=left;verticalAlign=top;spacingLeft=4;spacingRight=4;overflow=hidden;rotatable=0;points=[[0,0.5],[1,0.5]];portConstraint=eastwest;whiteSpace=wrap;html=1;" vertex="1" parent="GnsFQ2bvyRAYjjchj4tW-64">
          <mxGeometry y="78" width="140" height="26" as="geometry" />
        </mxCell>
        <mxCell id="GnsFQ2bvyRAYjjchj4tW-70" style="rounded=0;orthogonalLoop=1;jettySize=auto;html=1;exitX=1;exitY=1;exitDx=0;exitDy=0;entryX=-0.009;entryY=0.279;entryDx=0;entryDy=0;entryPerimeter=0;" edge="1" parent="GnsFQ2bvyRAYjjchj4tW-123" source="GnsFQ2bvyRAYjjchj4tW-47" target="GnsFQ2bvyRAYjjchj4tW-51">
          <mxGeometry relative="1" as="geometry" />
        </mxCell>
        <mxCell id="GnsFQ2bvyRAYjjchj4tW-71" style="rounded=0;orthogonalLoop=1;jettySize=auto;html=1;exitX=0.75;exitY=0;exitDx=0;exitDy=0;entryX=0;entryY=0.25;entryDx=0;entryDy=0;" edge="1" parent="GnsFQ2bvyRAYjjchj4tW-123" source="GnsFQ2bvyRAYjjchj4tW-45" target="GnsFQ2bvyRAYjjchj4tW-47">
          <mxGeometry relative="1" as="geometry" />
        </mxCell>
        <mxCell id="GnsFQ2bvyRAYjjchj4tW-73" style="rounded=0;orthogonalLoop=1;jettySize=auto;html=1;exitX=0;exitY=0.25;exitDx=0;exitDy=0;entryX=1;entryY=0.25;entryDx=0;entryDy=0;" edge="1" parent="GnsFQ2bvyRAYjjchj4tW-123" source="GnsFQ2bvyRAYjjchj4tW-45" target="GnsFQ2bvyRAYjjchj4tW-46">
          <mxGeometry relative="1" as="geometry" />
        </mxCell>
        <mxCell id="GnsFQ2bvyRAYjjchj4tW-74" value="RECEIVE/ REQ /RES" style="swimlane;fontStyle=0;childLayout=stackLayout;horizontal=1;startSize=26;fillColor=none;horizontalStack=0;resizeParent=1;resizeParentMax=0;resizeLast=0;collapsible=1;marginBottom=0;html=1;" vertex="1" parent="GnsFQ2bvyRAYjjchj4tW-123">
          <mxGeometry x="348" y="624" width="200" height="104" as="geometry" />
        </mxCell>
        <mxCell id="GnsFQ2bvyRAYjjchj4tW-75" value="PAYROLL REQ/RES" style="text;strokeColor=none;fillColor=none;align=left;verticalAlign=top;spacingLeft=4;spacingRight=4;overflow=hidden;rotatable=0;points=[[0,0.5],[1,0.5]];portConstraint=eastwest;whiteSpace=wrap;html=1;" vertex="1" parent="GnsFQ2bvyRAYjjchj4tW-74">
          <mxGeometry y="26" width="200" height="26" as="geometry" />
        </mxCell>
        <mxCell id="GnsFQ2bvyRAYjjchj4tW-76" value="ATTENDANCE REQ/RES" style="text;strokeColor=none;fillColor=none;align=left;verticalAlign=top;spacingLeft=4;spacingRight=4;overflow=hidden;rotatable=0;points=[[0,0.5],[1,0.5]];portConstraint=eastwest;whiteSpace=wrap;html=1;" vertex="1" parent="GnsFQ2bvyRAYjjchj4tW-74">
          <mxGeometry y="52" width="200" height="26" as="geometry" />
        </mxCell>
        <mxCell id="GnsFQ2bvyRAYjjchj4tW-77" value="HRIS REQ/RES" style="text;strokeColor=none;fillColor=none;align=left;verticalAlign=top;spacingLeft=4;spacingRight=4;overflow=hidden;rotatable=0;points=[[0,0.5],[1,0.5]];portConstraint=eastwest;whiteSpace=wrap;html=1;" vertex="1" parent="GnsFQ2bvyRAYjjchj4tW-74">
          <mxGeometry y="78" width="200" height="26" as="geometry" />
        </mxCell>
        <mxCell id="GnsFQ2bvyRAYjjchj4tW-78" value="PAYROLL TABLE" style="swimlane;fontStyle=0;childLayout=stackLayout;horizontal=1;startSize=26;fillColor=none;horizontalStack=0;resizeParent=1;resizeParentMax=0;resizeLast=0;collapsible=1;marginBottom=0;html=1;" vertex="1" collapsed="1" parent="GnsFQ2bvyRAYjjchj4tW-123">
          <mxGeometry x="646" y="480" width="142" height="30" as="geometry">
            <mxRectangle x="1788" y="176" width="140" height="104" as="alternateBounds" />
          </mxGeometry>
        </mxCell>
        <mxCell id="GnsFQ2bvyRAYjjchj4tW-79" value="ID" style="text;strokeColor=none;fillColor=none;align=left;verticalAlign=top;spacingLeft=4;spacingRight=4;overflow=hidden;rotatable=0;points=[[0,0.5],[1,0.5]];portConstraint=eastwest;whiteSpace=wrap;html=1;" vertex="1" parent="GnsFQ2bvyRAYjjchj4tW-78">
          <mxGeometry y="26" width="140" height="26" as="geometry" />
        </mxCell>
        <mxCell id="GnsFQ2bvyRAYjjchj4tW-80" value="KEY" style="text;strokeColor=none;fillColor=none;align=left;verticalAlign=top;spacingLeft=4;spacingRight=4;overflow=hidden;rotatable=0;points=[[0,0.5],[1,0.5]];portConstraint=eastwest;whiteSpace=wrap;html=1;" vertex="1" parent="GnsFQ2bvyRAYjjchj4tW-78">
          <mxGeometry y="52" width="140" height="26" as="geometry" />
        </mxCell>
        <mxCell id="GnsFQ2bvyRAYjjchj4tW-81" value="VALUE" style="text;strokeColor=none;fillColor=none;align=left;verticalAlign=top;spacingLeft=4;spacingRight=4;overflow=hidden;rotatable=0;points=[[0,0.5],[1,0.5]];portConstraint=eastwest;whiteSpace=wrap;html=1;" vertex="1" parent="GnsFQ2bvyRAYjjchj4tW-78">
          <mxGeometry y="78" width="140" height="26" as="geometry" />
        </mxCell>
        <mxCell id="GnsFQ2bvyRAYjjchj4tW-82" value="HRIS TABLE" style="swimlane;fontStyle=0;childLayout=stackLayout;horizontal=1;startSize=26;fillColor=none;horizontalStack=0;resizeParent=1;resizeParentMax=0;resizeLast=0;collapsible=1;marginBottom=0;html=1;" vertex="1" collapsed="1" parent="GnsFQ2bvyRAYjjchj4tW-123">
          <mxGeometry x="646" y="514" width="142" height="30" as="geometry">
            <mxRectangle x="1788" y="290" width="140" height="104" as="alternateBounds" />
          </mxGeometry>
        </mxCell>
        <mxCell id="GnsFQ2bvyRAYjjchj4tW-83" value="ID" style="text;strokeColor=none;fillColor=none;align=left;verticalAlign=top;spacingLeft=4;spacingRight=4;overflow=hidden;rotatable=0;points=[[0,0.5],[1,0.5]];portConstraint=eastwest;whiteSpace=wrap;html=1;" vertex="1" parent="GnsFQ2bvyRAYjjchj4tW-82">
          <mxGeometry y="26" width="140" height="26" as="geometry" />
        </mxCell>
        <mxCell id="GnsFQ2bvyRAYjjchj4tW-84" value="KEY" style="text;strokeColor=none;fillColor=none;align=left;verticalAlign=top;spacingLeft=4;spacingRight=4;overflow=hidden;rotatable=0;points=[[0,0.5],[1,0.5]];portConstraint=eastwest;whiteSpace=wrap;html=1;" vertex="1" parent="GnsFQ2bvyRAYjjchj4tW-82">
          <mxGeometry y="52" width="140" height="26" as="geometry" />
        </mxCell>
        <mxCell id="GnsFQ2bvyRAYjjchj4tW-85" value="VALUE" style="text;strokeColor=none;fillColor=none;align=left;verticalAlign=top;spacingLeft=4;spacingRight=4;overflow=hidden;rotatable=0;points=[[0,0.5],[1,0.5]];portConstraint=eastwest;whiteSpace=wrap;html=1;" vertex="1" parent="GnsFQ2bvyRAYjjchj4tW-82">
          <mxGeometry y="78" width="140" height="26" as="geometry" />
        </mxCell>
        <mxCell id="GnsFQ2bvyRAYjjchj4tW-86" value="ATTENDANCE TABLE" style="swimlane;fontStyle=0;childLayout=stackLayout;horizontal=1;startSize=26;fillColor=none;horizontalStack=0;resizeParent=1;resizeParentMax=0;resizeLast=0;collapsible=1;marginBottom=0;html=1;" vertex="1" collapsed="1" parent="GnsFQ2bvyRAYjjchj4tW-123">
          <mxGeometry x="646" y="554" width="142" height="30" as="geometry">
            <mxRectangle x="1788" y="250" width="140" height="104" as="alternateBounds" />
          </mxGeometry>
        </mxCell>
        <mxCell id="GnsFQ2bvyRAYjjchj4tW-87" value="ID" style="text;strokeColor=none;fillColor=none;align=left;verticalAlign=top;spacingLeft=4;spacingRight=4;overflow=hidden;rotatable=0;points=[[0,0.5],[1,0.5]];portConstraint=eastwest;whiteSpace=wrap;html=1;" vertex="1" parent="GnsFQ2bvyRAYjjchj4tW-86">
          <mxGeometry y="26" width="140" height="26" as="geometry" />
        </mxCell>
        <mxCell id="GnsFQ2bvyRAYjjchj4tW-88" value="KEY" style="text;strokeColor=none;fillColor=none;align=left;verticalAlign=top;spacingLeft=4;spacingRight=4;overflow=hidden;rotatable=0;points=[[0,0.5],[1,0.5]];portConstraint=eastwest;whiteSpace=wrap;html=1;" vertex="1" parent="GnsFQ2bvyRAYjjchj4tW-86">
          <mxGeometry y="52" width="140" height="26" as="geometry" />
        </mxCell>
        <mxCell id="GnsFQ2bvyRAYjjchj4tW-89" value="VALUE" style="text;strokeColor=none;fillColor=none;align=left;verticalAlign=top;spacingLeft=4;spacingRight=4;overflow=hidden;rotatable=0;points=[[0,0.5],[1,0.5]];portConstraint=eastwest;whiteSpace=wrap;html=1;" vertex="1" parent="GnsFQ2bvyRAYjjchj4tW-86">
          <mxGeometry y="78" width="140" height="26" as="geometry" />
        </mxCell>
        <mxCell id="GnsFQ2bvyRAYjjchj4tW-90" value="LOCAL DATA (OFFLINE)" style="swimlane;fontStyle=0;childLayout=stackLayout;horizontal=1;startSize=26;fillColor=none;horizontalStack=0;resizeParent=1;resizeParentMax=0;resizeLast=0;collapsible=1;marginBottom=0;html=1;" vertex="1" parent="GnsFQ2bvyRAYjjchj4tW-123">
          <mxGeometry x="19" y="634" width="200" height="104" as="geometry" />
        </mxCell>
        <mxCell id="GnsFQ2bvyRAYjjchj4tW-91" value="HRIS DATA" style="text;strokeColor=none;fillColor=none;align=left;verticalAlign=top;spacingLeft=4;spacingRight=4;overflow=hidden;rotatable=0;points=[[0,0.5],[1,0.5]];portConstraint=eastwest;whiteSpace=wrap;html=1;" vertex="1" parent="GnsFQ2bvyRAYjjchj4tW-90">
          <mxGeometry y="26" width="200" height="26" as="geometry" />
        </mxCell>
        <mxCell id="GnsFQ2bvyRAYjjchj4tW-92" value="PAYROLL DATA" style="text;strokeColor=none;fillColor=none;align=left;verticalAlign=top;spacingLeft=4;spacingRight=4;overflow=hidden;rotatable=0;points=[[0,0.5],[1,0.5]];portConstraint=eastwest;whiteSpace=wrap;html=1;" vertex="1" parent="GnsFQ2bvyRAYjjchj4tW-90">
          <mxGeometry y="52" width="200" height="26" as="geometry" />
        </mxCell>
        <mxCell id="GnsFQ2bvyRAYjjchj4tW-93" value="ATTENDANCE DATA" style="text;strokeColor=none;fillColor=none;align=left;verticalAlign=top;spacingLeft=4;spacingRight=4;overflow=hidden;rotatable=0;points=[[0,0.5],[1,0.5]];portConstraint=eastwest;whiteSpace=wrap;html=1;" vertex="1" parent="GnsFQ2bvyRAYjjchj4tW-90">
          <mxGeometry y="78" width="200" height="26" as="geometry" />
        </mxCell>
        <mxCell id="GnsFQ2bvyRAYjjchj4tW-95" value="&lt;b&gt;API LINK WIRE&lt;/b&gt;" style="text;html=1;align=center;verticalAlign=middle;resizable=0;points=[];autosize=1;strokeColor=none;fillColor=none;" vertex="1" parent="GnsFQ2bvyRAYjjchj4tW-123">
          <mxGeometry x="441" y="326" width="104" height="26" as="geometry" />
        </mxCell>
        <mxCell id="GnsFQ2bvyRAYjjchj4tW-96" value="&lt;b&gt;API LINK WIRE&lt;/b&gt;" style="text;html=1;align=center;verticalAlign=middle;resizable=0;points=[];autosize=1;strokeColor=none;fillColor=none;" vertex="1" parent="GnsFQ2bvyRAYjjchj4tW-123">
          <mxGeometry x="871" y="335" width="104" height="26" as="geometry" />
        </mxCell>
        <mxCell id="GnsFQ2bvyRAYjjchj4tW-97" value="API LINK WIRE" style="text;html=1;align=center;verticalAlign=middle;resizable=0;points=[];autosize=1;strokeColor=none;fillColor=none;" vertex="1" parent="GnsFQ2bvyRAYjjchj4tW-123">
          <mxGeometry x="219" y="460.83" width="110" height="30" as="geometry" />
        </mxCell>
        <mxCell id="GnsFQ2bvyRAYjjchj4tW-103" style="rounded=0;orthogonalLoop=1;jettySize=auto;html=1;exitX=1;exitY=1;exitDx=0;exitDy=0;entryX=0.25;entryY=0;entryDx=0;entryDy=0;" edge="1" parent="GnsFQ2bvyRAYjjchj4tW-123" source="GnsFQ2bvyRAYjjchj4tW-101" target="GnsFQ2bvyRAYjjchj4tW-45">
          <mxGeometry relative="1" as="geometry" />
        </mxCell>
        <mxCell id="GnsFQ2bvyRAYjjchj4tW-104" value="" style="group;fontStyle=1" vertex="1" connectable="0" parent="GnsFQ2bvyRAYjjchj4tW-123">
          <mxGeometry x="321" y="258" width="80" height="110" as="geometry" />
        </mxCell>
        <mxCell id="GnsFQ2bvyRAYjjchj4tW-101" value="" style="image;html=1;image=img/lib/clip_art/networking/Print_Server_Wireless_128x128.png" vertex="1" parent="GnsFQ2bvyRAYjjchj4tW-104">
          <mxGeometry width="80" height="80" as="geometry" />
        </mxCell>
        <mxCell id="GnsFQ2bvyRAYjjchj4tW-102" value="&lt;font style=&quot;font-size: 14px;&quot;&gt;&lt;b&gt;ISP 1&lt;/b&gt;&lt;/font&gt;" style="text;html=1;align=center;verticalAlign=middle;resizable=0;points=[];autosize=1;strokeColor=none;fillColor=none;" vertex="1" parent="GnsFQ2bvyRAYjjchj4tW-104">
          <mxGeometry x="13" y="81" width="52" height="29" as="geometry" />
        </mxCell>
        <mxCell id="GnsFQ2bvyRAYjjchj4tW-109" value="" style="group" vertex="1" connectable="0" parent="GnsFQ2bvyRAYjjchj4tW-123">
          <mxGeometry x="1008" y="256" width="80" height="110" as="geometry" />
        </mxCell>
        <mxCell id="GnsFQ2bvyRAYjjchj4tW-110" value="" style="image;html=1;image=img/lib/clip_art/networking/Print_Server_Wireless_128x128.png" vertex="1" parent="GnsFQ2bvyRAYjjchj4tW-109">
          <mxGeometry width="80" height="80" as="geometry" />
        </mxCell>
        <mxCell id="GnsFQ2bvyRAYjjchj4tW-111" value="&lt;font style=&quot;font-size: 14px;&quot;&gt;&lt;b&gt;ISP 2&lt;/b&gt;&lt;/font&gt;" style="text;html=1;align=center;verticalAlign=middle;resizable=0;points=[];autosize=1;strokeColor=none;fillColor=none;" vertex="1" parent="GnsFQ2bvyRAYjjchj4tW-109">
          <mxGeometry x="13" y="81" width="52" height="29" as="geometry" />
        </mxCell>
        <mxCell id="GnsFQ2bvyRAYjjchj4tW-112" style="rounded=0;orthogonalLoop=1;jettySize=auto;html=1;exitX=0;exitY=1;exitDx=0;exitDy=0;entryX=0.75;entryY=0;entryDx=0;entryDy=0;" edge="1" parent="GnsFQ2bvyRAYjjchj4tW-123" source="GnsFQ2bvyRAYjjchj4tW-110" target="GnsFQ2bvyRAYjjchj4tW-51">
          <mxGeometry relative="1" as="geometry" />
        </mxCell>
        <mxCell id="GnsFQ2bvyRAYjjchj4tW-115" value="" style="group" vertex="1" connectable="0" parent="GnsFQ2bvyRAYjjchj4tW-123">
          <mxGeometry x="648" y="7" width="205" height="741" as="geometry" />
        </mxCell>
        <mxCell id="GnsFQ2bvyRAYjjchj4tW-113" value="" style="image;html=1;image=img/lib/clip_art/networking/Cloud_Server_128x128.png" vertex="1" parent="GnsFQ2bvyRAYjjchj4tW-115">
          <mxGeometry x="6.542553191489362" y="31" width="122.12765957446808" height="100" as="geometry" />
        </mxCell>
        <mxCell id="GnsFQ2bvyRAYjjchj4tW-119" value="CLOUD FIREBASE (FREE VERSION)" style="swimlane;startSize=23;" vertex="1" parent="GnsFQ2bvyRAYjjchj4tW-115">
          <mxGeometry x="-61.06382978723404" y="-8" width="266.06382978723406" height="749" as="geometry" />
        </mxCell>
        <mxCell id="GnsFQ2bvyRAYjjchj4tW-47" value="" style="image;aspect=fixed;perimeter=ellipsePerimeter;html=1;align=center;shadow=0;dashed=0;spacingTop=3;image=img/lib/active_directory/web_server.svg;" vertex="1" parent="GnsFQ2bvyRAYjjchj4tW-119">
          <mxGeometry x="80.27382978723399" y="163" width="96.8" height="121" as="geometry" />
        </mxCell>
        <mxCell id="GnsFQ2bvyRAYjjchj4tW-125" value="&lt;b&gt;FUNCTIONS&lt;/b&gt;" style="swimlane;fontStyle=0;childLayout=stackLayout;horizontal=1;startSize=26;fillColor=none;horizontalStack=0;resizeParent=1;resizeParentMax=0;resizeLast=0;collapsible=1;marginBottom=0;html=1;" vertex="1" parent="GnsFQ2bvyRAYjjchj4tW-119">
          <mxGeometry x="58.673829787234" y="615" width="140" height="78" as="geometry" />
        </mxCell>
        <mxCell id="GnsFQ2bvyRAYjjchj4tW-126" value="Realtime Delete Data" style="text;strokeColor=none;fillColor=none;align=left;verticalAlign=top;spacingLeft=4;spacingRight=4;overflow=hidden;rotatable=0;points=[[0,0.5],[1,0.5]];portConstraint=eastwest;whiteSpace=wrap;html=1;" vertex="1" parent="GnsFQ2bvyRAYjjchj4tW-125">
          <mxGeometry y="26" width="140" height="26" as="geometry" />
        </mxCell>
        <mxCell id="GnsFQ2bvyRAYjjchj4tW-127" value="Realtime Stored Data" style="text;strokeColor=none;fillColor=none;align=left;verticalAlign=top;spacingLeft=4;spacingRight=4;overflow=hidden;rotatable=0;points=[[0,0.5],[1,0.5]];portConstraint=eastwest;whiteSpace=wrap;html=1;" vertex="1" parent="GnsFQ2bvyRAYjjchj4tW-125">
          <mxGeometry y="52" width="140" height="26" as="geometry" />
        </mxCell>
        <mxCell id="GnsFQ2bvyRAYjjchj4tW-114" value="&lt;font style=&quot;font-size: 14px;&quot;&gt;CLOUD&amp;nbsp;&lt;/font&gt;" style="text;html=1;align=center;verticalAlign=middle;resizable=0;points=[];autosize=1;strokeColor=none;fillColor=none;fontStyle=1" vertex="1" parent="GnsFQ2bvyRAYjjchj4tW-115">
          <mxGeometry x="77.00021276595749" y="111" width="71" height="29" as="geometry" />
        </mxCell>
        <mxCell id="GnsFQ2bvyRAYjjchj4tW-116" style="rounded=0;orthogonalLoop=1;jettySize=auto;html=1;exitX=0.5;exitY=1;exitDx=0;exitDy=0;entryX=0.494;entryY=0.027;entryDx=0;entryDy=0;entryPerimeter=0;" edge="1" parent="GnsFQ2bvyRAYjjchj4tW-115" source="GnsFQ2bvyRAYjjchj4tW-113" target="GnsFQ2bvyRAYjjchj4tW-47">
          <mxGeometry relative="1" as="geometry" />
        </mxCell>
        <mxCell id="GnsFQ2bvyRAYjjchj4tW-117" value="OFFICE DEPARTMENTS" style="swimlane;startSize=23;" vertex="1" parent="GnsFQ2bvyRAYjjchj4tW-123">
          <mxGeometry x="876" width="244" height="749" as="geometry" />
        </mxCell>
        <mxCell id="GnsFQ2bvyRAYjjchj4tW-118" value="SERVER ROOM" style="swimlane;" vertex="1" parent="GnsFQ2bvyRAYjjchj4tW-123">
          <mxGeometry width="563" height="749" as="geometry" />
        </mxCell>
        <mxCell id="GnsFQ2bvyRAYjjchj4tW-129" value="SYSTEMATIC" style="swimlane;startSize=20;horizontal=1;childLayout=treeLayout;horizontalTree=0;sortEdges=1;resizable=0;containerType=tree;fontSize=12;" vertex="1" parent="1">
          <mxGeometry x="1564" y="-353" width="1169" height="460" as="geometry" />
        </mxCell>
        <mxCell id="GnsFQ2bvyRAYjjchj4tW-130" value="Root" style="whiteSpace=wrap;html=1;" vertex="1" parent="GnsFQ2bvyRAYjjchj4tW-129">
          <mxGeometry x="546.75" y="40" width="100" height="40" as="geometry" />
        </mxCell>
        <mxCell id="GnsFQ2bvyRAYjjchj4tW-131" value="HR FOLDER" style="whiteSpace=wrap;html=1;" vertex="1" parent="GnsFQ2bvyRAYjjchj4tW-129">
          <mxGeometry x="114.5" y="130" width="100" height="40" as="geometry" />
        </mxCell>
        <mxCell id="GnsFQ2bvyRAYjjchj4tW-132" value="" style="edgeStyle=elbowEdgeStyle;elbow=vertical;html=1;rounded=1;curved=0;sourcePerimeterSpacing=0;targetPerimeterSpacing=0;startSize=6;endSize=6;" edge="1" parent="GnsFQ2bvyRAYjjchj4tW-129" source="GnsFQ2bvyRAYjjchj4tW-130" target="GnsFQ2bvyRAYjjchj4tW-131">
          <mxGeometry relative="1" as="geometry" />
        </mxCell>
        <mxCell id="GnsFQ2bvyRAYjjchj4tW-133" value="PAYROLL FOLDER" style="whiteSpace=wrap;html=1;" vertex="1" parent="GnsFQ2bvyRAYjjchj4tW-129">
          <mxGeometry x="419" y="130" width="100" height="40" as="geometry" />
        </mxCell>
        <mxCell id="GnsFQ2bvyRAYjjchj4tW-134" value="" style="edgeStyle=elbowEdgeStyle;elbow=vertical;html=1;rounded=1;curved=0;sourcePerimeterSpacing=0;targetPerimeterSpacing=0;startSize=6;endSize=6;" edge="1" parent="GnsFQ2bvyRAYjjchj4tW-129" source="GnsFQ2bvyRAYjjchj4tW-130" target="GnsFQ2bvyRAYjjchj4tW-133">
          <mxGeometry relative="1" as="geometry" />
        </mxCell>
        <mxCell id="GnsFQ2bvyRAYjjchj4tW-135" value="ATTENDANCE FOLDER" style="whiteSpace=wrap;html=1;" vertex="1" parent="GnsFQ2bvyRAYjjchj4tW-129">
          <mxGeometry x="699" y="130" width="100" height="40" as="geometry" />
        </mxCell>
        <mxCell id="GnsFQ2bvyRAYjjchj4tW-136" value="" style="edgeStyle=elbowEdgeStyle;elbow=vertical;html=1;rounded=1;curved=0;sourcePerimeterSpacing=0;targetPerimeterSpacing=0;startSize=6;endSize=6;" edge="1" parent="GnsFQ2bvyRAYjjchj4tW-129" source="GnsFQ2bvyRAYjjchj4tW-130" target="GnsFQ2bvyRAYjjchj4tW-135">
          <mxGeometry relative="1" as="geometry">
            <mxPoint x="-1843.625" y="80" as="sourcePoint" />
            <mxPoint x="-1773.625" y="130" as="targetPoint" />
          </mxGeometry>
        </mxCell>
        <mxCell id="GnsFQ2bvyRAYjjchj4tW-137" value="" style="edgeStyle=elbowEdgeStyle;elbow=vertical;html=1;rounded=1;curved=0;sourcePerimeterSpacing=0;targetPerimeterSpacing=0;startSize=6;endSize=6;" edge="1" target="GnsFQ2bvyRAYjjchj4tW-138" source="GnsFQ2bvyRAYjjchj4tW-131" parent="GnsFQ2bvyRAYjjchj4tW-129">
          <mxGeometry relative="1" as="geometry">
            <mxPoint x="-66.625" y="-570" as="sourcePoint" />
          </mxGeometry>
        </mxCell>
        <mxCell id="GnsFQ2bvyRAYjjchj4tW-154" style="edgeStyle=orthogonalEdgeStyle;rounded=0;orthogonalLoop=1;jettySize=auto;html=1;exitX=0.5;exitY=1;exitDx=0;exitDy=0;entryX=0.5;entryY=0;entryDx=0;entryDy=0;" edge="1" parent="GnsFQ2bvyRAYjjchj4tW-129" source="GnsFQ2bvyRAYjjchj4tW-138" target="GnsFQ2bvyRAYjjchj4tW-153">
          <mxGeometry relative="1" as="geometry" />
        </mxCell>
        <mxCell id="GnsFQ2bvyRAYjjchj4tW-138" value="MVC FOLDER" style="whiteSpace=wrap;html=1;" vertex="1" parent="GnsFQ2bvyRAYjjchj4tW-129">
          <mxGeometry x="20" y="220" width="149" height="40" as="geometry" />
        </mxCell>
        <mxCell id="GnsFQ2bvyRAYjjchj4tW-139" value="" style="edgeStyle=elbowEdgeStyle;elbow=vertical;html=1;rounded=1;curved=0;sourcePerimeterSpacing=0;targetPerimeterSpacing=0;startSize=6;endSize=6;" edge="1" target="GnsFQ2bvyRAYjjchj4tW-140" source="GnsFQ2bvyRAYjjchj4tW-133" parent="GnsFQ2bvyRAYjjchj4tW-129">
          <mxGeometry relative="1" as="geometry">
            <mxPoint x="-66.625" y="-570" as="sourcePoint" />
          </mxGeometry>
        </mxCell>
        <mxCell id="GnsFQ2bvyRAYjjchj4tW-170" style="edgeStyle=orthogonalEdgeStyle;rounded=0;orthogonalLoop=1;jettySize=auto;html=1;exitX=0.5;exitY=1;exitDx=0;exitDy=0;" edge="1" parent="GnsFQ2bvyRAYjjchj4tW-129" source="GnsFQ2bvyRAYjjchj4tW-140" target="GnsFQ2bvyRAYjjchj4tW-167">
          <mxGeometry relative="1" as="geometry" />
        </mxCell>
        <mxCell id="GnsFQ2bvyRAYjjchj4tW-140" value="MVC FOLDER" style="whiteSpace=wrap;html=1;" vertex="1" parent="GnsFQ2bvyRAYjjchj4tW-129">
          <mxGeometry x="349" y="220" width="100" height="40" as="geometry" />
        </mxCell>
        <mxCell id="GnsFQ2bvyRAYjjchj4tW-141" value="" style="edgeStyle=elbowEdgeStyle;elbow=vertical;html=1;rounded=1;curved=0;sourcePerimeterSpacing=0;targetPerimeterSpacing=0;startSize=6;endSize=6;" edge="1" target="GnsFQ2bvyRAYjjchj4tW-142" source="GnsFQ2bvyRAYjjchj4tW-135" parent="GnsFQ2bvyRAYjjchj4tW-129">
          <mxGeometry relative="1" as="geometry">
            <mxPoint x="-66.625" y="-570" as="sourcePoint" />
            <mxPoint x="-136.625" y="-520" as="targetPoint" />
          </mxGeometry>
        </mxCell>
        <mxCell id="GnsFQ2bvyRAYjjchj4tW-174" style="edgeStyle=orthogonalEdgeStyle;rounded=0;orthogonalLoop=1;jettySize=auto;html=1;exitX=0.5;exitY=1;exitDx=0;exitDy=0;entryX=0.5;entryY=0;entryDx=0;entryDy=0;" edge="1" parent="GnsFQ2bvyRAYjjchj4tW-129" source="GnsFQ2bvyRAYjjchj4tW-142" target="GnsFQ2bvyRAYjjchj4tW-168">
          <mxGeometry relative="1" as="geometry" />
        </mxCell>
        <mxCell id="GnsFQ2bvyRAYjjchj4tW-142" value="MVC FOLDER" style="whiteSpace=wrap;html=1;" vertex="1" parent="GnsFQ2bvyRAYjjchj4tW-129">
          <mxGeometry x="629" y="220" width="100" height="40" as="geometry" />
        </mxCell>
        <mxCell id="GnsFQ2bvyRAYjjchj4tW-143" value="" style="edgeStyle=elbowEdgeStyle;elbow=vertical;html=1;rounded=1;curved=0;sourcePerimeterSpacing=0;targetPerimeterSpacing=0;startSize=6;endSize=6;" edge="1" target="GnsFQ2bvyRAYjjchj4tW-144" source="GnsFQ2bvyRAYjjchj4tW-131" parent="GnsFQ2bvyRAYjjchj4tW-129">
          <mxGeometry relative="1" as="geometry">
            <mxPoint x="-206.625" y="-480" as="sourcePoint" />
          </mxGeometry>
        </mxCell>
        <mxCell id="GnsFQ2bvyRAYjjchj4tW-144" value="SignUp (signup.php)" style="whiteSpace=wrap;html=1;" vertex="1" parent="GnsFQ2bvyRAYjjchj4tW-129">
          <mxGeometry x="209" y="220" width="100" height="40" as="geometry" />
        </mxCell>
        <mxCell id="GnsFQ2bvyRAYjjchj4tW-147" value="" style="edgeStyle=elbowEdgeStyle;elbow=vertical;html=1;rounded=1;curved=0;sourcePerimeterSpacing=0;targetPerimeterSpacing=0;startSize=6;endSize=6;" edge="1" target="GnsFQ2bvyRAYjjchj4tW-148" source="GnsFQ2bvyRAYjjchj4tW-144" parent="GnsFQ2bvyRAYjjchj4tW-129">
          <mxGeometry relative="1" as="geometry">
            <mxPoint x="297" y="-480" as="sourcePoint" />
          </mxGeometry>
        </mxCell>
        <mxCell id="GnsFQ2bvyRAYjjchj4tW-148" value="login (index.php)" style="whiteSpace=wrap;html=1;" vertex="1" parent="GnsFQ2bvyRAYjjchj4tW-129">
          <mxGeometry x="209" y="310" width="100" height="40" as="geometry" />
        </mxCell>
        <mxCell id="GnsFQ2bvyRAYjjchj4tW-149" value="" style="edgeStyle=elbowEdgeStyle;elbow=vertical;html=1;rounded=1;curved=0;sourcePerimeterSpacing=0;targetPerimeterSpacing=0;startSize=6;endSize=6;" edge="1" target="GnsFQ2bvyRAYjjchj4tW-150" source="GnsFQ2bvyRAYjjchj4tW-148" parent="GnsFQ2bvyRAYjjchj4tW-129">
          <mxGeometry relative="1" as="geometry">
            <mxPoint x="394" y="-377" as="sourcePoint" />
          </mxGeometry>
        </mxCell>
        <mxCell id="GnsFQ2bvyRAYjjchj4tW-150" value="logout (logout.php)" style="whiteSpace=wrap;html=1;" vertex="1" parent="GnsFQ2bvyRAYjjchj4tW-129">
          <mxGeometry x="209" y="400" width="100" height="40" as="geometry" />
        </mxCell>
        <mxCell id="GnsFQ2bvyRAYjjchj4tW-153" value="DATABASE&lt;div&gt;TABLE&lt;/div&gt;" style="shape=datastore;whiteSpace=wrap;html=1;" vertex="1" parent="GnsFQ2bvyRAYjjchj4tW-129">
          <mxGeometry x="64.50000000000001" y="310" width="60" height="60" as="geometry" />
        </mxCell>
        <mxCell id="GnsFQ2bvyRAYjjchj4tW-155" value="" style="edgeStyle=elbowEdgeStyle;elbow=vertical;html=1;rounded=1;curved=0;sourcePerimeterSpacing=0;targetPerimeterSpacing=0;startSize=6;endSize=6;" edge="1" target="GnsFQ2bvyRAYjjchj4tW-156" source="GnsFQ2bvyRAYjjchj4tW-133" parent="GnsFQ2bvyRAYjjchj4tW-129">
          <mxGeometry relative="1" as="geometry">
            <mxPoint x="534" y="-467" as="sourcePoint" />
          </mxGeometry>
        </mxCell>
        <mxCell id="GnsFQ2bvyRAYjjchj4tW-156" value="login(index.php)" style="whiteSpace=wrap;html=1;" vertex="1" parent="GnsFQ2bvyRAYjjchj4tW-129">
          <mxGeometry x="489" y="220" width="100" height="40" as="geometry" />
        </mxCell>
        <mxCell id="GnsFQ2bvyRAYjjchj4tW-157" value="" style="edgeStyle=elbowEdgeStyle;elbow=vertical;html=1;rounded=1;curved=0;sourcePerimeterSpacing=0;targetPerimeterSpacing=0;startSize=6;endSize=6;" edge="1" target="GnsFQ2bvyRAYjjchj4tW-158" source="GnsFQ2bvyRAYjjchj4tW-135" parent="GnsFQ2bvyRAYjjchj4tW-129">
          <mxGeometry relative="1" as="geometry">
            <mxPoint x="1095.75" y="-467" as="sourcePoint" />
            <mxPoint x="1503.375" y="-1157" as="targetPoint" />
          </mxGeometry>
        </mxCell>
        <mxCell id="GnsFQ2bvyRAYjjchj4tW-158" value="login(index.php)" style="whiteSpace=wrap;html=1;" vertex="1" parent="GnsFQ2bvyRAYjjchj4tW-129">
          <mxGeometry x="769" y="220" width="100" height="40" as="geometry" />
        </mxCell>
        <mxCell id="GnsFQ2bvyRAYjjchj4tW-159" value="SCHOOL FOLDER" style="whiteSpace=wrap;html=1;" vertex="1" parent="GnsFQ2bvyRAYjjchj4tW-129">
          <mxGeometry x="979" y="130" width="100" height="40" as="geometry" />
        </mxCell>
        <mxCell id="GnsFQ2bvyRAYjjchj4tW-160" value="" style="edgeStyle=elbowEdgeStyle;elbow=vertical;html=1;rounded=1;curved=0;sourcePerimeterSpacing=0;targetPerimeterSpacing=0;startSize=6;endSize=6;" edge="1" parent="GnsFQ2bvyRAYjjchj4tW-129" source="GnsFQ2bvyRAYjjchj4tW-130" target="GnsFQ2bvyRAYjjchj4tW-159">
          <mxGeometry relative="1" as="geometry">
            <mxPoint x="-414.5" y="80" as="sourcePoint" />
            <mxPoint x="-122.5" y="130" as="targetPoint" />
          </mxGeometry>
        </mxCell>
        <mxCell id="GnsFQ2bvyRAYjjchj4tW-161" value="" style="edgeStyle=elbowEdgeStyle;elbow=vertical;html=1;rounded=1;curved=0;sourcePerimeterSpacing=0;targetPerimeterSpacing=0;startSize=6;endSize=6;" edge="1" target="GnsFQ2bvyRAYjjchj4tW-162" source="GnsFQ2bvyRAYjjchj4tW-159" parent="GnsFQ2bvyRAYjjchj4tW-129">
          <mxGeometry relative="1" as="geometry">
            <mxPoint x="1710.25" y="-557" as="sourcePoint" />
            <mxPoint x="1517.5" y="-507" as="targetPoint" />
          </mxGeometry>
        </mxCell>
        <mxCell id="GnsFQ2bvyRAYjjchj4tW-175" style="edgeStyle=orthogonalEdgeStyle;rounded=0;orthogonalLoop=1;jettySize=auto;html=1;exitX=0.5;exitY=1;exitDx=0;exitDy=0;entryX=0.5;entryY=0;entryDx=0;entryDy=0;" edge="1" parent="GnsFQ2bvyRAYjjchj4tW-129" source="GnsFQ2bvyRAYjjchj4tW-162" target="GnsFQ2bvyRAYjjchj4tW-169">
          <mxGeometry relative="1" as="geometry" />
        </mxCell>
        <mxCell id="GnsFQ2bvyRAYjjchj4tW-162" value="MVC" style="whiteSpace=wrap;html=1;" vertex="1" parent="GnsFQ2bvyRAYjjchj4tW-129">
          <mxGeometry x="909" y="220" width="100" height="40" as="geometry" />
        </mxCell>
        <mxCell id="GnsFQ2bvyRAYjjchj4tW-163" value="login(index.php)" style="whiteSpace=wrap;html=1;" vertex="1" parent="GnsFQ2bvyRAYjjchj4tW-129">
          <mxGeometry x="1049" y="220" width="100" height="40" as="geometry" />
        </mxCell>
        <mxCell id="GnsFQ2bvyRAYjjchj4tW-164" value="" style="edgeStyle=elbowEdgeStyle;elbow=vertical;html=1;rounded=1;curved=0;sourcePerimeterSpacing=0;targetPerimeterSpacing=0;startSize=6;endSize=6;" edge="1" parent="GnsFQ2bvyRAYjjchj4tW-129" source="GnsFQ2bvyRAYjjchj4tW-159" target="GnsFQ2bvyRAYjjchj4tW-163">
          <mxGeometry relative="1" as="geometry">
            <mxPoint x="467.25" y="170" as="sourcePoint" />
            <mxPoint x="467.25" y="220" as="targetPoint" />
          </mxGeometry>
        </mxCell>
        <mxCell id="GnsFQ2bvyRAYjjchj4tW-167" value="DATABASE&lt;div&gt;TABLE&lt;/div&gt;" style="shape=datastore;whiteSpace=wrap;html=1;" vertex="1" parent="GnsFQ2bvyRAYjjchj4tW-129">
          <mxGeometry x="369" y="310" width="60" height="60" as="geometry" />
        </mxCell>
        <mxCell id="GnsFQ2bvyRAYjjchj4tW-168" value="DATABASE&lt;div&gt;TABLE&lt;/div&gt;" style="shape=datastore;whiteSpace=wrap;html=1;" vertex="1" parent="GnsFQ2bvyRAYjjchj4tW-129">
          <mxGeometry x="649" y="310" width="60" height="60" as="geometry" />
        </mxCell>
        <mxCell id="GnsFQ2bvyRAYjjchj4tW-169" value="DATABASE&lt;div&gt;TABLE&lt;/div&gt;" style="shape=datastore;whiteSpace=wrap;html=1;" vertex="1" parent="GnsFQ2bvyRAYjjchj4tW-129">
          <mxGeometry x="929" y="310" width="60" height="60" as="geometry" />
        </mxCell>
        <mxCell id="GnsFQ2bvyRAYjjchj4tW-178" value="&lt;div&gt;MAIN&lt;/div&gt;DATABASE" style="shape=datastore;whiteSpace=wrap;html=1;" vertex="1" parent="1">
          <mxGeometry x="2053" y="220" width="125.5" height="110" as="geometry" />
        </mxCell>
        <mxCell id="GnsFQ2bvyRAYjjchj4tW-179" style="edgeStyle=orthogonalEdgeStyle;rounded=0;orthogonalLoop=1;jettySize=auto;html=1;exitX=0.5;exitY=1;exitDx=0;exitDy=0;" edge="1" parent="1" source="GnsFQ2bvyRAYjjchj4tW-153" target="GnsFQ2bvyRAYjjchj4tW-178">
          <mxGeometry relative="1" as="geometry" />
        </mxCell>
        <mxCell id="GnsFQ2bvyRAYjjchj4tW-181" style="edgeStyle=orthogonalEdgeStyle;rounded=0;orthogonalLoop=1;jettySize=auto;html=1;exitX=0.5;exitY=1;exitDx=0;exitDy=0;entryX=0.5;entryY=0;entryDx=0;entryDy=0;" edge="1" parent="1" source="GnsFQ2bvyRAYjjchj4tW-167" target="GnsFQ2bvyRAYjjchj4tW-178">
          <mxGeometry relative="1" as="geometry" />
        </mxCell>
        <mxCell id="GnsFQ2bvyRAYjjchj4tW-182" style="edgeStyle=orthogonalEdgeStyle;rounded=0;orthogonalLoop=1;jettySize=auto;html=1;exitX=0.5;exitY=1;exitDx=0;exitDy=0;entryX=0.5;entryY=0;entryDx=0;entryDy=0;" edge="1" parent="1" source="GnsFQ2bvyRAYjjchj4tW-168" target="GnsFQ2bvyRAYjjchj4tW-178">
          <mxGeometry relative="1" as="geometry" />
        </mxCell>
        <mxCell id="GnsFQ2bvyRAYjjchj4tW-183" style="edgeStyle=orthogonalEdgeStyle;rounded=0;orthogonalLoop=1;jettySize=auto;html=1;exitX=0.5;exitY=1;exitDx=0;exitDy=0;entryX=0.5;entryY=0;entryDx=0;entryDy=0;" edge="1" parent="1" source="GnsFQ2bvyRAYjjchj4tW-169" target="GnsFQ2bvyRAYjjchj4tW-178">
          <mxGeometry relative="1" as="geometry" />
        </mxCell>
      </root>
    </mxGraphModel>
  </diagram>
</mxfile>
